<svg xmlns="http://www.w3.org/2000/svg"  viewBox="0 0 24 24" width="48px" height="48px" baseProfile="basic"><linearGradient id="fnVsFx9zxftGW_7UdMzzJa" x1="5.745" x2="16.351" y1="7.649" y2="18.255" gradientUnits="userSpaceOnUse"><stop offset="0" stop-color="#fff" stop-opacity=".6"/><stop offset="1" stop-color="#fff" stop-opacity=".3"/></linearGradient><path fill="url(#fnVsFx9zxftGW_7UdMzzJa)" d="M14.5,2C10.358,2,7,5.358,7,9.5c0,1.033,0.209,2.017,0.587,2.913l-5.294,5.294 C2.105,17.895,2,18.149,2,18.414V21c0,0.552,0.448,1,1,1h2.586c0.265,0,0.52-0.105,0.707-0.293l1.293-1.293 C7.851,20.149,8,19.789,8,19.414C8,18.633,8.633,18,9.414,18c0.375,0,0.735-0.149,1-0.414l1.173-1.173 C12.483,16.791,13.467,17,14.5,17c4.142,0,7.5-3.358,7.5-7.5C22,5.358,18.642,2,14.5,2z M17,9c-1.105,0-2-0.895-2-2 c0-1.105,0.895-2,2-2s2,0.895,2,2C19,8.105,18.105,9,17,9z"/><linearGradient id="fnVsFx9zxftGW_7UdMzzJb" x1="2" x2="22" y1="12" y2="12" gradientUnits="userSpaceOnUse"><stop offset="0" stop-color="#fff" stop-opacity=".6"/><stop offset=".493" stop-color="#fff" stop-opacity="0"/><stop offset=".997" stop-color="#fff" stop-opacity=".3"/></linearGradient><path fill="url(#fnVsFx9zxftGW_7UdMzzJb)" d="M14.5,2.5c3.86,0,7,3.14,7,7 c0,3.86-3.14,7-7,7c-0.942,0-1.857-0.184-2.719-0.548l-0.31-0.131l-0.238,0.238l-1.173,1.173C9.888,17.405,9.658,17.5,9.414,17.5 c-1.055,0-1.914,0.859-1.914,1.914c0,0.244-0.095,0.474-0.268,0.646l-1.293,1.293C5.845,21.448,5.719,21.5,5.586,21.5H3 c-0.276,0-0.5-0.224-0.5-0.5v-2.586c0-0.134,0.052-0.259,0.146-0.354l5.294-5.294l0.238-0.238l-0.131-0.31 C7.684,11.357,7.5,10.442,7.5,9.5C7.5,5.64,10.64,2.5,14.5,2.5 M17,9.5c1.379,0,2.5-1.122,2.5-2.5c0-1.379-1.121-2.5-2.5-2.5 S14.5,5.621,14.5,7C14.5,8.378,15.621,9.5,17,9.5 M14.5,2C10.358,2,7,5.358,7,9.5c0,1.033,0.209,2.017,0.587,2.913l-5.294,5.294 C2.105,17.895,2,18.149,2,18.414V21c0,0.552,0.448,1,1,1h2.586c0.265,0,0.52-0.105,0.707-0.293l1.293-1.293 C7.851,20.149,8,19.789,8,19.414C8,18.633,8.633,18,9.414,18c0.375,0,0.735-0.149,1-0.414l1.173-1.173 C12.483,16.791,13.467,17,14.5,17c4.142,0,7.5-3.358,7.5-7.5C22,5.358,18.642,2,14.5,2L14.5,2z M17,9c-1.105,0-2-0.895-2-2 c0-1.105,0.895-2,2-2s2,0.895,2,2C19,8.105,18.105,9,17,9L17,9z"/></svg>